<svg width="100%" viewBox="0 0 680 910" xmlns="http://www.w3.org/2000/svg">
  <rect width="680" height="900" fill="#f5f5f5" style="fill:rgb(245, 245, 245);stroke:none;color:rgb(0, 0, 0);stroke-width:1px;stroke-linecap:butt;stroke-linejoin:miter;opacity:1;font-family:&quot;Anthropic Sans&quot;, -apple-system, BlinkMacSystemFont, &quot;Segoe UI&quot;, sans-serif;font-size:16px;font-weight:400;text-anchor:start;dominant-baseline:auto"/>
  <path d="M0,0 L680,0 L680,460&#10;    C637,460 637,480 595,480&#10;    C552,480 552,460 510,460&#10;    C467,460 467,480 425,480&#10;    C382,480 382,460 340,460&#10;    C297,460 297,480 255,480&#10;    C212,480 212,460 170,460&#10;    C127,460 127,480 85,480&#10;    C42,480 42,460 0,460 Z" fill="#ab1c21" style="fill:rgb(171, 28, 33);stroke:none;color:rgb(0, 0, 0);stroke-width:1px;stroke-linecap:butt;stroke-linejoin:miter;opacity:1;font-family:&quot;Anthropic Sans&quot;, -apple-system, BlinkMacSystemFont, &quot;Segoe UI&quot;, sans-serif;font-size:16px;font-weight:400;text-anchor:start;dominant-baseline:auto"/>
</svg>